<svg viewBox="0 0 280 280" xmlns="http://www.w3.org/2000/svg" fill-rule="evenodd" clip-rule="evenodd" stroke-linejoin="round" stroke-miterlimit="1.414"><path d="M83.997 180.5c-.153-.002-.305-.008-.456-.023-.334-.034-.665-.106-.983-.214-.585-.197-1.126-.517-1.583-.932-.51-.462-.91-1.04-1.162-1.68-.136-.346-.23-.71-.276-1.077-.02-.152-.03-.304-.035-.457-.303-24.038 0-48.08 0-72.12.002-.152.008-.304.023-.455.034-.334.106-.665.214-.983.21-.62.555-1.19 1.006-1.662.45-.47 1-.844 1.607-1.083.346-.136.71-.23 1.078-.276.15-.02.303-.03.456-.035 37.37-.472 74.746 0 112.12 0 .152.002.304.008.455.023.37.038.737.122 1.087.25.58.212 1.112.544 1.558.97.498.475.885 1.063 1.122 1.71.115.314.195.642.237.974.02.152.03.304.035.457.304 24.038 0 48.08 0 72.12-.002.152-.008.304-.023.456-.034.334-.106.665-.214.983-.197.585-.517 1.126-.932 1.583-.462.51-1.04.91-1.68 1.162-.346.136-.71.23-1.077.276-.152.02-.304.03-.457.035-37.37.47-74.746 0-112.12 0z" fill="#364053"/><path d="M83.997 180.5c-.153-.002-.305-.008-.456-.023-.334-.034-.665-.106-.983-.214-.585-.197-1.126-.517-1.583-.932-.51-.462-.91-1.04-1.162-1.68-.136-.346-.23-.71-.276-1.077-.02-.152-.03-.304-.035-.457-.303-24.038 0-48.08 0-72.12.002-.152.008-.304.023-.455.034-.334.106-.665.214-.983.21-.62.555-1.19 1.006-1.662.45-.47 1-.844 1.607-1.083.346-.136.71-.23 1.078-.276.15-.02.303-.03.456-.035 37.37-.472 74.746 0 112.12 0 .152.002.304.008.455.023.37.038.737.122 1.087.25.58.212 1.112.544 1.558.97.498.475.885 1.063 1.122 1.71.115.314.195.642.237.974.02.152.03.304.035.457.304 24.038 0 48.08 0 72.12-.002.152-.008.304-.023.456-.034.334-.106.665-.214.983-.197.585-.517 1.126-.932 1.583-.462.51-1.04.91-1.68 1.162-.346.136-.71.23-1.077.276-.152.02-.304.03-.457.035-37.37.47-74.746 0-112.12 0zm.006-1c37.363 0 74.728.47 112.088 0l.18-.01c.376-.034.743-.117 1.092-.265.886-.375 1.595-1.118 1.926-2.022.13-.358.196-.732.21-1.112.307-24.058.307-48.122 0-72.18-.014-.38-.08-.755-.21-1.113-.34-.932-1.082-1.69-2.005-2.054-.382-.15-.783-.226-1.192-.242-37.39-.472-74.79-.472-112.18 0-.41.017-.81.092-1.193.243-.923.363-1.664 1.122-2.005 2.054-.13.358-.196.732-.21 1.112-.305 24.058-.305 48.122 0 72.18.014.38.08.755.21 1.113.33.904 1.04 1.647 1.926 2.022.35.148.716.23 1.092.265.09.006.182.01.273.01zm81.778-45.007c-4.83 0-7.567 1.143-7.567 5.652 0 4.51 2.737 5.652 7.568 5.652 4.832 0 7.553-1.143 7.553-5.652 0-4.51-2.72-5.652-7.552-5.652zm-27.423.145H137.1v11.014h1.257v-11.014zm4.397 1.256h.177c1.66 0 2.014.547 5.17 4.67 3.205 4.186 3.945 5.088 6.473 5.088h1.063v-11.014h-1.24v9.758h-.177c-1.708 0-2.126-.596-5.106-4.59-3.156-4.218-3.897-5.168-6.537-5.168h-1.063v11.014h1.24v-9.758zm-15.008 3.848c-2.867.983-5.765 2.045-5.765 4.767v1.142h12.754v-1.11h-11.417v-.307c0-1.82 2.528-2.61 5.185-3.526 2.947-1.016 5.975-2.16 5.975-4.913v-1.16h-12.464v1.128h11.16v.29c0 1.836-2.432 2.673-5.427 3.687zm38.035 4.88c-4.025 0-6.295-.677-6.295-4.477 0-3.8 2.27-4.46 6.296-4.46 4.027 0 6.28.66 6.28 4.46s-2.253 4.477-6.28 4.477zm-59.113-9.984l5.024 5.233c.532.565 1.482 1.53 1.482 2.4v3.382h1.24v-3.38c0-.87.934-1.837 1.482-2.4l5.024-5.234h-1.82l-3.913 4.235c-.483.53-1.11 1.16-1.4 1.9-.29-.74-.903-1.385-1.386-1.9l-3.914-4.235h-1.82z" fill="#fff"/></svg>