<svg viewBox="0 0 236 40" xmlns="http://www.w3.org/2000/svg" fill-rule="evenodd" clip-rule="evenodd" stroke-linejoin="round" stroke-miterlimit="1.414"><g fill="#fff" fill-rule="nonzero" id="Layer1"><path d="M209.174 0c-17.094 0-26.78 4.046-26.78 20s9.686 20 26.78 20 26.723-4.046 26.723-20-9.63-20-26.723-20zm0 35.84c-14.245 0-22.28-2.393-22.28-15.84s8.035-15.783 22.28-15.783c14.245 0 22.222 2.336 22.222 15.783s-7.977 15.84-22.222 15.84zM127.692 4.957h.627c5.868 0 7.122 1.938 18.29 16.524 11.34 14.816 13.96 18.007 22.906 18.007h3.76V.513h-4.387v34.53h-.628c-6.04 0-7.52-2.108-18.063-16.24C139.03 3.875 136.41.513 127.065.513h-3.76v38.974h4.386V4.957zM107.692.513h4.444v38.974h-4.444zM74.587 18.576c-10.143 3.475-20.4 7.236-20.4 16.866v4.045h45.13v-3.93h-40.4v-1.084c0-6.44 8.946-9.23 18.348-12.48 10.427-3.588 21.14-7.634 21.14-17.378V.513H54.302V4.5H93.79v1.027c0 6.496-8.605 9.46-19.203 13.049zM0 .513L17.778 19.03c1.88 1.996 5.242 5.414 5.242 8.49v11.967h4.387V27.52c0-3.076 3.305-6.494 5.243-8.49L50.427.514H43.99L30.14 15.5c-1.71 1.88-3.93 4.1-4.957 6.722-1.025-2.62-3.19-4.9-4.9-6.723L6.44.512H0z"/></g></svg>