<svg viewBox="0 0 375 23" xmlns="http://www.w3.org/2000/svg" fill-rule="evenodd" clip-rule="evenodd" stroke-linejoin="round" stroke-miterlimit="1.414"><path d="M212.375 20h10v3h-10v-3zm60 0h10v3h-10v-3zm15 0h10v3h-10v-3zm25 0h-10v3h10v-3zm30 0h-10v3h10v-3zm15 0h-10v3h10v-3zm5 0h10v3h-10v-3zm-35 0h-10v3h10v-3zm-70 0h10v3h-10v-3zm-15 0h10v3h-10v-3zm-15 0h10v3h-10v-3zm-30 0h10v3h-10v-3zM2.625 20h10v3h-10v-3zm15 0h10v3h-10v-3zm30 0h10v3h-10v-3zm15 0h10v3h-10v-3zm15 0h10v3h-10v-3zm70 0h-10v3h10v-3zm35 0h10v3h-10v-3zm-5 0h-10v3h10v-3zm-15 0h-10v3h10v-3zm-30 0h-10v3h10v-3zm-25 0h10v3h-10v-3zm-15 0h10v3h-10v-3zm-60 0h10v3h-10v-3zm164.75-5h10v3h-10v-3zm30 0h10v3h-10v-3zm15 0h10v3h-10v-3zm15 0h10v3h-10v-3zm70 0h-10v3h10v-3zm35 0h10v3h-10v-3zm-5 0h-10v3h10v-3zm-15 0h-10v3h10v-3zm-30 0h-10v3h10v-3zm-25 0h10v3h-10v-3zm-15 0h10v3h-10v-3zm-60 0h10v3h-10v-3zm-179.75 0h10v3h-10v-3zm60 0h10v3h-10v-3zm15 0h10v3h-10v-3zm25 0h-10v3h10v-3zm30 0h-10v3h10v-3zm15 0h-10v3h10v-3zm5 0h10v3h-10v-3zm-35 0h-10v3h10v-3zm-70 0h10v3h-10v-3zm-15 0h10v3h-10v-3zm-15 0h10v3h-10v-3zm-30 0h10v3h-10v-3zm-15 0h10v3h-10v-3zm209.75-5h10v3h-10v-3zm60 0h10v3h-10v-3zm15 0h10v3h-10v-3zm55 0h-10v3h10v-3zm15 0h-10v3h10v-3zm5 0h10v3h-10v-3zm-35 0h-10v3h10v-3zm-70 0h10v3h-10v-3zm-30 0h10v3h-10v-3zm-30 0h10v3h-10v-3zM2.625 10h10v3h-10v-3zm15 0h10v3h-10v-3zm30 0h10v3h-10v-3zm30 0h10v3h-10v-3zm70 0h-10v3h10v-3zm35 0h10v3h-10v-3zm-5 0h-10v3h10v-3zm-15 0h-10v3h10v-3zm-55 0h10v3h-10v-3zm-15 0h10v3h-10v-3zm-60 0h10v3h-10v-3zm164.75-5h10v3h-10V5zm30 0h10v3h-10V5zm30 0h10v3h-10V5zm70 0h-10v3h10V5zm30 0h-10v3h10V5zm-70 0h10v3h-10V5zm-15 0h10v3h-10V5zM92.625 5h10v3h-10V5zm15 0h10v3h-10V5zm70 0h-10v3h10V5zm-30 0h-10v3h10V5zm-70 0h10v3h-10V5zm-30 0h10v3h-10V5zm-30 0h10v3h-10V5zm254.75-5h10v3h-10V0zm55 0h-10v3h10V0zm-100 0h10v3h-10V0zM47.625 0h10v3h-10V0zm100 0h-10v3h10V0zm-55 0h10v3h-10V0z" fill="#fff" fill-opacity=".3"/></svg>