<svg viewBox="0 0 1001 51" xmlns="http://www.w3.org/2000/svg" fill-rule="evenodd" clip-rule="evenodd" stroke-linecap="round" stroke-linejoin="round" stroke-miterlimit="1.414"><path id="a1" d="M.866 25.866h450l3.125-8.333 3.126 16.666 3.125-25 3.126 33.333L466.49.866l3.126 50L472.74 9.2l3.126 33.333 3.125-25 3.126 16.666 3.125-16.667 3.126 16.666 3.125-12.5 3.126 8.333 3.125-8.334 3.126 8.333 3.125-12.5 3.126 16.666 3.125-16.667 3.126 16.666 3.125-12.5 2.785 8.787L522.74 9.2l3.126 33.333 3.125-29.167 3.126 25L535.24 9.2l3.126 33.333 3.125-25 3.126 16.666 3.125-12.5 3.126 4.166h450.004" fill="none" stroke="#fff" stroke-opacity=".298"/></svg>