<svg viewBox="0 0 320 170" xmlns="http://www.w3.org/2000/svg" fill-rule="evenodd" clip-rule="evenodd" stroke-linejoin="round" stroke-miterlimit="1.414"><path d="M39.998 17.59v135h232.5v-135h-232.5z" fill="#fff" fill-opacity=".149"/><path d="M19.995 161.09c-.42-.002-.84-.024-1.258-.07-.816-.095-1.62-.28-2.394-.552-1.463-.515-2.81-1.345-3.934-2.415-1.22-1.16-2.165-2.6-2.744-4.18-.28-.77-.476-1.57-.58-2.383-.052-.418-.08-.837-.087-1.258-.275-43.427-.275-86.857 0-130.284.006-.374.028-.747.07-1.12.093-.815.278-1.62.55-2.393.53-1.505 1.393-2.888 2.508-4.03 1.144-1.17 2.55-2.083 4.088-2.647.77-.282 1.57-.476 2.383-.58.416-.052.836-.08 1.257-.087 93.426-.59 186.857-.59 280.283 0 .42.01.84.036 1.258.09.813.102 1.613.296 2.383.578 1.79.655 3.393 1.78 4.622 3.234.86 1.016 1.532 2.187 1.974 3.443.273.774.458 1.578.55 2.393.043.373.065.746.072 1.12.28 43.427.28 86.857 0 130.284-.007.375-.03.748-.07 1.12-.094.815-.28 1.62-.552 2.394-.442 1.255-1.115 2.427-1.974 3.443-1.23 1.453-2.833 2.578-4.62 3.233-.814.297-1.662.497-2.522.596-.372.04-.745.062-1.12.07-93.38.59-186.763 0-280.145 0zm.003-1c93.377 0 186.755.59 280.13 0 .128-.003.257-.007.385-.013.338-.02.674-.05 1.008-.102.735-.112 1.455-.306 2.145-.578 1.348-.532 2.573-1.36 3.572-2.407.945-.99 1.684-2.175 2.155-3.46.256-.7.432-1.428.526-2.166.048-.38.072-.762.08-1.144.275-43.42.275-86.84 0-130.26-.007-.34-.026-.68-.065-1.018-.084-.74-.252-1.472-.5-2.175-.482-1.368-1.266-2.625-2.28-3.662-1.04-1.066-2.317-1.896-3.716-2.408-.7-.256-1.427-.432-2.165-.526-.38-.048-.76-.072-1.144-.08-93.418-.59-186.84-.59-280.26 0-.34.008-.68.027-1.018.066-.74.084-1.47.252-2.175.5-1.368.482-2.625 1.266-3.662 2.28-1.066 1.04-1.895 2.317-2.408 3.716-.256.7-.432 1.426-.526 2.165-.05.38-.073.76-.08 1.144-.276 43.42-.276 86.84 0 130.26.007.382.03.764.08 1.144.093.738.27 1.466.525 2.165.47 1.285 1.21 2.47 2.155 3.46 1 1.048 2.224 1.875 3.572 2.407.69.272 1.41.466 2.144.578.334.05.67.083 1.008.102.17.008.343.012.514.013zm5.635-60.667c0 .368-.298.667-.667.667-.368 0-.666-.3-.666-.667V70.753c.002-.366.3-.662.666-.662.37 0 .667.3.667.668v28.665zm264.365-4.333c-.468-.003-.934-.032-1.398-.097-.937-.13-1.855-.396-2.717-.786-1.98-.895-3.64-2.44-4.678-4.35-.467-.86-.807-1.79-1.003-2.75-.22-1.08-.262-2.197-.123-3.29.13-1.02.417-2.02.853-2.952.51-1.092 1.218-2.09 2.08-2.93.89-.87 1.945-1.573 3.093-2.06 1.19-.502 2.473-.768 3.763-.784 1.295-.015 2.59.22 3.795.694 1.16.458 2.232 1.135 3.146 1.985.882.82 1.613 1.798 2.15 2.876.456.92.768 1.907.923 2.92.167 1.09.153 2.21-.04 3.294-.173.968-.49 1.908-.94 2.783-.99 1.933-2.612 3.518-4.57 4.46-.85.41-1.757.698-2.688.852-.46.077-.923.117-1.388.132-.13.003-.13.003-.26.003zm0-1c.422-.002.843-.03 1.26-.087.843-.118 1.668-.357 2.444-.707 1.816-.82 3.332-2.25 4.262-4.012.377-.715.657-1.48.828-2.27.22-1.006.264-2.05.134-3.07-.117-.92-.376-1.818-.768-2.656-.46-.983-1.097-1.88-1.872-2.638-.803-.783-1.75-1.416-2.785-1.853-1.068-.452-2.224-.69-3.385-.706-1.166-.014-2.33.196-3.416.624-1.046.412-2.01 1.022-2.832 1.787-.793.74-1.452 1.62-1.935 2.59-.41.827-.69 1.716-.83 2.628-.156 1.02-.137 2.065.057 3.077.16.83.437 1.64.823 2.392.89 1.74 2.352 3.167 4.114 4.016.765.37 1.58.627 2.418.766.414.067.83.104 1.25.117l.234.003z" fill="#fff"/></svg>