<svg viewBox="0 0 320 170" xmlns="http://www.w3.org/2000/svg" fill-rule="evenodd" clip-rule="evenodd" stroke-linejoin="round" stroke-miterlimit="1.414"><g fill="#fff"><path d="M220 145.783c-.058-.004-.073-.002-.13-.017-.148-.04-.273-.15-.332-.292-.026-.063-.034-.124-.038-.19v-22.5c.004-.06.002-.074.017-.13.023-.085.068-.163.13-.225.046-.047.1-.084.162-.11.228-.094.5-.002.623.213.046.08.06.16.067.25v22.5c-.004.067-.012.128-.038.19-.05.123-.15.222-.27.272-.055.022-.07.022-.127.034l-.065.003zm-120 0c-.058-.004-.073-.002-.13-.017-.148-.04-.273-.15-.332-.292-.026-.063-.034-.124-.038-.19v-22.5c.004-.06.002-.074.017-.13.023-.085.068-.163.13-.225.175-.176.46-.194.657-.044.052.04.096.09.13.147.045.08.06.16.066.25v22.5c-.004.067-.012.128-.038.19-.05.123-.15.222-.27.272-.055.022-.07.022-.127.034l-.065.003zm89.973 0c-.055-.007-.106-.015-.158-.036-.135-.053-.242-.166-.29-.304-.017-.053-.022-.105-.025-.16v-15c.003-.048 0-.06.012-.107.02-.09.063-.17.125-.237.18-.19.487-.208.687-.038.04.035.076.077.104.123.05.08.067.166.072.258v15c-.003.055-.008.107-.026.16-.04.12-.128.222-.24.282-.05.026-.1.04-.153.05-.053.007-.053.007-.107.007zm-60 0c-.055-.007-.106-.015-.158-.036-.135-.053-.242-.166-.29-.304-.017-.053-.022-.105-.025-.16v-15c.005-.092.023-.178.072-.258.028-.046.063-.088.104-.123.2-.17.507-.153.687.037.062.065.106.147.125.236.01.047.01.06.012.107v15c-.003.055-.008.107-.026.16-.04.12-.128.222-.24.282-.05.026-.1.04-.153.05-.053.007-.053.007-.107.007zm150 0c-.055-.007-.106-.015-.158-.036-.135-.053-.242-.166-.29-.304-.017-.053-.022-.105-.025-.16v-15c.003-.048 0-.06.012-.107.02-.09.063-.17.125-.237.18-.19.487-.208.687-.038.04.035.077.077.104.123.05.08.067.166.072.258v15c-.003.055-.008.107-.026.16-.04.12-.128.222-.24.282-.05.026-.1.04-.153.05-.053.007-.053.007-.107.007zm-240 0c-.055-.007-.106-.015-.158-.036-.135-.053-.242-.166-.29-.304-.017-.053-.022-.105-.025-.16v-15c.003-.048 0-.06.012-.107.02-.09.063-.17.125-.237.18-.19.487-.208.687-.038.04.035.076.077.104.123.05.08.067.166.072.258v15c-.003.055-.008.107-.026.16-.04.12-.128.222-.24.282-.05.026-.1.04-.153.05-.053.007-.053.007-.107.007zm29.99 0c-.066-.01-.084-.01-.146-.035-.14-.055-.25-.173-.295-.318-.02-.063-.017-.08-.022-.147v-30c.002-.025.002-.05.006-.075.014-.098.06-.192.127-.265.176-.19.477-.212.68-.05.038.03.072.067.1.108.042.063.07.134.08.208.005.025.005.05.007.075v30c-.005.066-.003.084-.022.147-.045.145-.155.263-.295.318-.062.025-.08.024-.146.034h-.074zm90 0c-.066-.01-.084-.01-.146-.035-.14-.055-.25-.173-.295-.318-.02-.063-.017-.08-.022-.147v-30c.002-.025.002-.05.006-.075.01-.074.04-.145.08-.207.03-.04.063-.077.102-.108.202-.16.503-.138.68.05.067.074.112.168.126.266.004.025.004.05.006.075v30c-.005.066-.003.084-.022.147-.045.145-.155.263-.295.318-.062.025-.08.024-.146.034h-.074zm90 0c-.066-.01-.084-.01-.146-.035-.14-.055-.25-.173-.295-.318-.02-.063-.017-.08-.022-.147v-30c.002-.025.002-.05.006-.075.014-.098.06-.192.127-.265.176-.19.477-.212.68-.05.038.03.072.067.1.108.042.063.07.134.08.208.005.025.005.05.007.075v30c-.005.066-.003.084-.022.147-.045.145-.155.263-.295.318-.062.025-.08.024-.146.034h-.074zm-120-30c-.066-.01-.084-.01-.146-.035-.14-.055-.25-.173-.295-.318-.02-.063-.017-.08-.022-.147v-30c.002-.025.002-.05.006-.075.01-.074.04-.145.08-.207.146-.212.44-.28.664-.15.043.025.083.056.117.093.068.073.113.167.127.265.004.025.004.05.006.075v30c-.005.066-.003.084-.022.147-.045.145-.155.263-.295.318-.062.025-.08.024-.146.034h-.074zm60 0c-.066-.01-.084-.01-.146-.035-.14-.055-.25-.173-.295-.318-.02-.063-.017-.08-.022-.147v-30c.002-.025.002-.05.006-.075.01-.074.04-.145.08-.207.146-.212.44-.28.664-.15.043.025.083.056.117.093.068.073.113.167.127.265.004.025.004.05.006.075v30c-.005.066-.003.084-.022.147-.045.145-.155.263-.295.318-.062.025-.08.024-.146.034h-.074zm90 0c-.066-.01-.084-.01-.146-.035-.14-.055-.25-.173-.295-.318-.02-.063-.017-.08-.022-.147v-30c.002-.025.002-.05.006-.075.01-.074.04-.145.08-.207.146-.212.44-.28.664-.15.043.025.083.056.117.093.068.073.113.167.127.265.004.025.004.05.006.075v30c-.005.066-.003.084-.022.147-.045.145-.155.263-.295.318-.062.025-.08.024-.146.034h-.074zm-240 0c-.066-.01-.084-.01-.146-.035-.14-.055-.25-.173-.295-.318-.02-.063-.017-.08-.022-.147v-30c.002-.025.002-.05.006-.075.014-.098.06-.192.127-.265.034-.037.074-.068.117-.093.224-.13.518-.062.663.15.042.063.07.134.08.208.005.025.005.05.007.075v30c-.005.066-.003.084-.022.147-.045.145-.155.263-.295.318-.062.025-.08.024-.146.034h-.074zm60.037-7.5c-.058-.004-.073-.002-.13-.017-.148-.04-.273-.15-.332-.292-.026-.063-.034-.124-.038-.19v-22.5c.004-.06.002-.074.017-.13.023-.085.068-.163.13-.225.175-.176.46-.194.657-.044.052.04.096.09.13.147.045.08.06.16.066.25v22.5c-.004.067-.012.128-.038.19-.05.123-.15.222-.27.272-.055.022-.07.022-.127.034l-.065.003zm120 0c-.067-.004-.128-.012-.19-.038-.144-.06-.253-.184-.293-.333-.015-.056-.013-.07-.017-.13v-22.5c.006-.09.02-.17.067-.25.033-.056.077-.106.13-.146.195-.15.48-.132.657.043.06.06.106.14.13.224.014.056.012.07.016.13v22.5c-.004.066-.012.127-.038.19-.05.122-.15.22-.27.27-.055.023-.07.023-.127.035l-.065.003zm29.973-7.5c-.055-.007-.106-.015-.158-.036-.135-.053-.242-.166-.29-.304-.017-.053-.022-.105-.025-.16v-15c.005-.092.023-.178.072-.258.028-.046.063-.088.104-.123.2-.17.507-.153.687.037.062.065.106.147.125.236.01.047.01.06.012.107v15c-.003.055-.008.107-.026.16-.04.12-.128.222-.24.282-.05.026-.1.04-.153.05-.053.007-.053.007-.107.007zm-90 0c-.055-.007-.106-.015-.158-.036-.135-.053-.242-.166-.29-.304-.017-.053-.022-.105-.025-.16v-15c.003-.048 0-.06.012-.107.02-.09.063-.17.125-.237.037-.04.08-.073.13-.1.23-.122.526-.04.66.185.05.08.068.166.073.258v15c-.003.055-.008.107-.026.16-.04.12-.128.222-.24.282-.05.026-.1.04-.153.05-.053.007-.053.007-.107.007zm-90 0c-.055-.007-.106-.015-.158-.036-.135-.053-.242-.166-.29-.304-.017-.053-.022-.105-.025-.16v-15c.003-.048 0-.06.012-.107.02-.09.063-.17.125-.237.18-.19.487-.208.687-.038.04.035.076.077.104.123.05.08.067.166.072.258v15c-.003.055-.008.107-.026.16-.04.12-.128.222-.24.282-.05.026-.1.04-.153.05-.053.007-.053.007-.107.007z" fill-opacity=".302"/><path fill-opacity=".149" d="M32.5 25.283h255v15h-255z"/><path d="M14.997 161.283c-.703-.005-1.4-.122-2.06-.364-.727-.267-1.4-.676-1.972-1.196-.606-.55-1.097-1.225-1.435-1.97-.33-.73-.503-1.517-.528-2.317-.888-46.76-.888-93.547 0-140.308.025-.8.2-1.587.528-2.317.457-1.01 1.196-1.884 2.115-2.505.36-.244.748-.445 1.152-.607.65-.26 1.35-.393 2.05-.415 96.75-1.842 193.555-1.842 290.307 0 .8.025 1.586.2 2.316.528 1.01.457 1.884 1.196 2.505 2.115.244.36.445.748.607 1.152.262.65.394 1.35.416 2.05.886 46.76.886 93.546 0 140.307-.025.8-.2 1.586-.528 2.316-.457 1.01-1.196 1.884-2.115 2.505-.36.244-.748.445-1.152.607-.65.262-1.35.394-2.05.416-96.7 1.833-193.437.003-290.156.003zm.003-1c96.71 0 193.437 1.835 290.13-.002.106-.002.212-.008.318-.017.597-.057 1.18-.212 1.72-.473 1.164-.56 2.084-1.574 2.53-2.788.193-.53.29-1.09.302-1.654.295-46.73.886-93.47-.002-140.194-.02-.666-.165-1.32-.44-1.93-.55-1.214-1.587-2.18-2.84-2.638-.53-.194-1.09-.292-1.653-.303-96.73-.612-193.48-1.836-290.194.002-.665.02-1.32.165-1.928.44-1.215.55-2.18 1.587-2.64 2.84-.193.53-.29 1.09-.302 1.653-.295 46.73-.886 93.47.002 140.194.017.564.122 1.12.323 1.647.466 1.227 1.42 2.24 2.617 2.78.57.258 1.18.4 1.8.436.086.004.172.006.258.007zm111.25-30v-15h7.5v15h-7.5zm60 0v-15h7.5v15h-7.5zm90 0v-15h7.5v15h-7.5zm-240 0v-15h7.5v15h-7.5zm1-1h5.5v-13h-5.5v13zm240 0h5.5v-13h-5.5v13zm-90 0h5.5v-13h-5.5v13zm-60 0h5.5v-13h-5.5v13zm89-6.5v-15h7.5v15h-7.5zm-120 0v-15h7.5v15h-7.5zm1-1h5.5v-13h-5.5v13zm120 0h5.5v-13h-5.5v13zm-151-6.5v-15h7.5v15h-7.5zm180 0v-15h7.5v15h-7.5zm-90 0v-15h7.5v15h-7.5zm1-1h5.5v-13h-5.5v13zm90 0h5.5v-13h-5.5v13zm-180 0h5.5v-13h-5.5v13zM250 67.533c-.202-.002-.403-.013-.604-.038-.504-.064-.998-.21-1.456-.43-.894-.432-1.642-1.145-2.116-2.017-.223-.41-.384-.852-.478-1.31-.104-.51-.124-1.04-.058-1.56.06-.465.188-.922.382-1.35.236-.522.567-1 .97-1.404.406-.404.883-.735 1.405-.97.575-.26 1.202-.404 1.833-.42.635-.016 1.272.096 1.864.33.534.21 1.028.517 1.452.903.423.384.775.845 1.036 1.353.213.416.364.863.446 1.323.085.476.097.965.036 1.444-.06.466-.188.923-.382 1.35-.425.94-1.16 1.73-2.065 2.222-.445.24-.927.41-1.425.5-.198.034-.396.054-.596.067-.123.005-.122.005-.244.006zm30 0c-.202-.002-.403-.013-.604-.038-.504-.064-.998-.21-1.456-.43-.93-.45-1.7-1.2-2.17-2.12-.195-.38-.338-.787-.424-1.206-.104-.513-.124-1.042-.058-1.56.06-.467.188-.924.382-1.352.236-.522.567-1 .97-1.404.406-.404.883-.735 1.405-.97.575-.26 1.202-.404 1.833-.42.635-.016 1.272.096 1.864.33.534.21 1.028.517 1.452.903.423.384.775.845 1.036 1.353.213.416.364.863.446 1.323.085.476.097.965.036 1.444-.06.466-.188.923-.382 1.35-.425.94-1.16 1.73-2.065 2.222-.445.24-.927.41-1.425.5-.198.034-.396.054-.596.067-.123.005-.122.005-.244.006zm-60 0c-.202-.002-.403-.013-.604-.038-.504-.064-.998-.21-1.456-.43-.93-.45-1.7-1.2-2.17-2.12-.195-.38-.338-.787-.424-1.206-.104-.513-.124-1.042-.058-1.56.06-.467.188-.924.382-1.352.236-.522.567-1 .97-1.404.406-.404.883-.735 1.405-.97.575-.26 1.202-.404 1.833-.42.635-.016 1.272.096 1.864.33.534.21 1.028.517 1.452.903.423.384.775.845 1.036 1.353.213.416.364.863.446 1.323.085.476.097.965.036 1.444-.06.466-.188.923-.382 1.35-.425.94-1.16 1.73-2.065 2.222-.445.24-.927.41-1.425.5-.198.034-.396.054-.596.067-.123.005-.122.005-.244.006zm-90 0c-.202-.002-.403-.013-.604-.038-.504-.064-.998-.21-1.456-.43-.86-.415-1.585-1.09-2.06-1.917-.252-.437-.432-.914-.534-1.41-.104-.51-.124-1.04-.058-1.56.06-.465.188-.922.382-1.35.236-.522.567-1 .97-1.404.406-.404.883-.735 1.405-.97.575-.26 1.202-.404 1.833-.42.635-.016 1.272.096 1.864.33.534.21 1.028.517 1.452.903.423.384.775.844 1.036 1.353.213.416.364.863.446 1.323.085.476.097.965.036 1.444-.06.466-.188.923-.382 1.35-.425.94-1.16 1.73-2.065 2.222-.445.24-.927.41-1.425.5-.198.034-.396.054-.596.067-.123.005-.122.005-.244.006zm60 0c-.202-.002-.403-.013-.604-.038-.504-.064-.998-.21-1.456-.43-.894-.432-1.642-1.145-2.116-2.017-.223-.41-.384-.852-.478-1.31-.104-.51-.124-1.04-.058-1.56.06-.465.188-.922.382-1.35.236-.522.567-1 .97-1.404.406-.404.883-.735 1.405-.97.575-.26 1.202-.404 1.833-.42.635-.016 1.272.096 1.864.33.534.21 1.028.517 1.452.903.423.384.775.844 1.036 1.353.213.416.364.863.446 1.323.085.476.097.964.036 1.444-.06.466-.188.923-.382 1.35-.425.94-1.16 1.73-2.065 2.222-.445.24-.927.41-1.425.5-.198.034-.396.054-.596.067-.123.005-.122.005-.244.006zm-30 0c-.202-.002-.403-.013-.604-.038-.504-.064-.998-.21-1.456-.43-.894-.432-1.642-1.145-2.116-2.017-.223-.41-.384-.852-.478-1.31-.104-.51-.124-1.04-.058-1.56.06-.465.188-.922.382-1.35.236-.522.567-1 .97-1.404.406-.404.883-.735 1.405-.97.575-.26 1.202-.404 1.833-.42.635-.016 1.272.096 1.864.33.534.21 1.028.517 1.452.903.423.384.775.844 1.036 1.353.213.416.364.863.446 1.323.085.476.097.964.036 1.444-.06.466-.188.923-.382 1.35-.425.94-1.16 1.73-2.065 2.222-.445.24-.927.41-1.425.5-.198.034-.396.054-.596.067-.123.005-.122.005-.244.006zm-60 0c-.202-.002-.403-.013-.604-.038-.504-.064-.998-.21-1.456-.43-.894-.432-1.642-1.145-2.116-2.017-.223-.41-.384-.852-.478-1.31-.104-.51-.124-1.04-.058-1.56.06-.465.188-.922.382-1.35.236-.522.567-1 .97-1.404.406-.404.883-.735 1.405-.97.575-.26 1.202-.404 1.833-.42.635-.016 1.272.096 1.864.33.534.21 1.028.517 1.452.903.423.384.776.845 1.036 1.353.213.416.364.863.446 1.323.085.476.097.964.036 1.444-.06.466-.188.923-.382 1.35-.425.94-1.16 1.73-2.065 2.222-.445.24-.927.41-1.425.5-.198.034-.396.054-.596.067-.123.005-.122.005-.244.006zm-60 0c-.202-.002-.403-.013-.604-.038-.504-.064-.998-.21-1.456-.43-.894-.432-1.642-1.145-2.116-2.017-.223-.41-.384-.852-.478-1.31-.104-.51-.124-1.04-.058-1.56.06-.465.188-.922.382-1.35.236-.522.567-1 .97-1.404.406-.404.883-.735 1.405-.97.575-.26 1.202-.404 1.833-.42.635-.016 1.272.096 1.864.33.534.21 1.028.517 1.452.903.423.384.775.844 1.036 1.353.213.416.364.863.446 1.323.085.476.097.964.036 1.444-.06.466-.188.923-.382 1.35-.425.94-1.16 1.73-2.065 2.222-.445.24-.927.41-1.425.5-.198.034-.396.054-.596.067-.123.005-.122.005-.244.006zm30 0c-.202-.002-.403-.013-.604-.038-.504-.064-.998-.21-1.456-.43-.894-.432-1.642-1.145-2.116-2.017-.223-.41-.384-.852-.478-1.31-.104-.51-.124-1.04-.058-1.56.06-.465.188-.922.382-1.35.236-.522.567-1 .97-1.404.406-.404.883-.735 1.405-.97.575-.26 1.202-.404 1.833-.42.635-.016 1.272.096 1.864.33.534.21 1.028.517 1.452.903.423.384.775.844 1.036 1.353.213.416.364.863.446 1.323.085.476.097.964.036 1.444-.06.466-.188.923-.382 1.35-.425.94-1.16 1.73-2.065 2.222-.445.24-.927.41-1.425.5-.198.034-.396.054-.596.067-.123.005-.122.005-.244.006zm-30-1c.16-.002.32-.01.478-.03.397-.05.787-.166 1.148-.34.706-.34 1.297-.904 1.67-1.593.177-.322.304-.67.378-1.03.083-.406.098-.825.046-1.235-.047-.367-.15-.728-.3-1.065-.187-.412-.45-.79-.768-1.11-.32-.318-.697-.58-1.11-.766-.453-.205-.947-.317-1.445-.33-.502-.012-1.005.075-1.472.26-.42.165-.81.41-1.146.713-.335.304-.614.667-.82 1.07-.168.327-.287.68-.35 1.042-.07.375-.078.762-.03 1.14.047.368.15.73.3 1.066.337.743.917 1.366 1.633 1.754.35.19.73.324 1.123.394.156.028.313.044.47.054.098.004.097.004.194.005zm60 0c.16-.002.32-.01.478-.03.397-.05.787-.166 1.148-.34.706-.34 1.297-.904 1.67-1.593.177-.322.304-.67.378-1.03.083-.406.098-.825.046-1.235-.047-.367-.15-.728-.3-1.065-.187-.412-.45-.79-.768-1.11-.32-.318-.697-.58-1.11-.766-.453-.205-.947-.317-1.445-.33-.502-.012-1.005.075-1.472.26-.42.165-.81.41-1.146.713-.335.304-.614.667-.82 1.07-.168.327-.287.68-.35 1.042-.07.375-.078.762-.03 1.14.047.368.15.73.3 1.066.337.743.917 1.366 1.633 1.754.35.19.73.324 1.123.394.156.028.313.044.47.054.098.004.097.004.194.005zm60 0c.16-.002.32-.01.478-.03.397-.05.787-.166 1.148-.34.706-.34 1.297-.904 1.67-1.593.177-.322.304-.67.378-1.03.083-.406.098-.825.046-1.235-.047-.367-.15-.728-.3-1.065-.187-.412-.45-.79-.768-1.11-.32-.318-.697-.58-1.11-.766-.453-.205-.947-.317-1.445-.33-.502-.012-1.005.075-1.472.26-.42.165-.81.41-1.146.713-.335.304-.614.667-.82 1.07-.168.327-.287.68-.35 1.042-.07.375-.078.762-.03 1.14.047.368.15.73.3 1.066.337.743.917 1.366 1.633 1.754.35.19.73.324 1.123.394.156.028.313.044.47.054.098.004.097.004.194.005zm60 0c.16-.002.32-.01.478-.03.397-.05.787-.166 1.148-.34.706-.34 1.297-.904 1.67-1.593.177-.322.304-.67.378-1.03.083-.406.098-.825.046-1.235-.047-.367-.15-.728-.3-1.065-.187-.412-.45-.79-.768-1.11-.32-.318-.697-.58-1.11-.766-.453-.205-.947-.317-1.445-.33-.502-.012-1.005.075-1.472.26-.42.165-.81.41-1.146.713-.335.304-.614.667-.82 1.07-.168.327-.287.68-.35 1.042-.07.375-.078.762-.03 1.14.047.368.15.73.3 1.066.337.743.917 1.366 1.633 1.754.35.19.73.324 1.123.394.156.028.313.044.47.054.098.004.097.004.194.005zm60 0c.16-.002.32-.01.478-.03.397-.05.787-.166 1.148-.34.706-.34 1.297-.904 1.67-1.593.177-.322.304-.67.378-1.03.083-.406.098-.825.046-1.235-.047-.367-.15-.728-.3-1.065-.187-.412-.45-.79-.768-1.11-.32-.318-.697-.58-1.11-.766-.453-.205-.947-.317-1.445-.33-.502-.012-1.005.075-1.472.26-.42.165-.81.41-1.146.713-.335.304-.614.667-.82 1.07-.168.327-.287.68-.35 1.042-.07.375-.078.762-.03 1.14.047.368.15.73.3 1.066.337.743.917 1.366 1.633 1.754.35.19.73.324 1.123.394.156.028.313.044.47.054.098.004.097.004.194.005zm-30 0c.16-.002.32-.01.478-.03.397-.05.787-.166 1.148-.34.706-.34 1.297-.904 1.67-1.593.177-.322.304-.67.378-1.03.083-.406.098-.825.046-1.235-.047-.367-.15-.728-.3-1.065-.187-.412-.45-.79-.768-1.11-.32-.318-.697-.58-1.11-.766-.453-.205-.947-.317-1.445-.33-.502-.012-1.005.075-1.472.26-.42.165-.81.41-1.146.713-.335.304-.614.667-.82 1.07-.168.327-.287.68-.35 1.042-.07.375-.078.762-.03 1.14.047.368.15.73.3 1.066.337.743.917 1.366 1.633 1.754.35.19.73.324 1.123.394.156.028.313.044.47.054.098.004.097.004.194.005zm-60 0c.16-.002.32-.01.478-.03.397-.05.787-.166 1.148-.34.706-.34 1.297-.904 1.67-1.593.177-.322.304-.67.378-1.03.083-.406.098-.825.046-1.235-.047-.367-.15-.728-.3-1.065-.187-.412-.45-.79-.768-1.11-.32-.318-.697-.58-1.11-.766-.453-.205-.947-.317-1.445-.33-.502-.012-1.005.075-1.472.26-.42.165-.81.41-1.146.713-.335.304-.614.667-.82 1.07-.168.327-.287.68-.35 1.042-.07.375-.078.762-.03 1.14.047.368.15.73.3 1.066.337.743.917 1.366 1.633 1.754.35.19.73.324 1.123.394.156.028.313.044.47.054.098.004.097.004.194.005zm-60 0c.16-.002.32-.01.478-.03.397-.05.787-.166 1.148-.34.706-.34 1.297-.904 1.67-1.593.177-.322.304-.67.378-1.03.083-.406.098-.825.046-1.235-.047-.367-.15-.728-.3-1.065-.187-.412-.45-.79-.768-1.11-.32-.318-.697-.58-1.11-.766-.453-.205-.947-.317-1.445-.33-.502-.012-1.005.075-1.472.26-.42.165-.81.41-1.146.713-.335.304-.614.667-.82 1.07-.168.327-.287.68-.35 1.042-.07.375-.078.762-.03 1.14.047.368.15.73.3 1.066.337.743.917 1.366 1.633 1.754.35.19.73.324 1.123.394.156.028.313.044.47.054.098.004.097.004.194.005zm-60 0c.16-.002.32-.01.478-.03.397-.05.787-.166 1.148-.34.706-.34 1.297-.904 1.67-1.593.177-.322.304-.67.378-1.03.083-.406.098-.825.046-1.235-.047-.367-.15-.728-.3-1.065-.187-.412-.45-.79-.768-1.11-.32-.318-.697-.58-1.11-.766-.453-.205-.947-.317-1.445-.33-.502-.012-1.005.075-1.472.26-.42.165-.81.41-1.146.713-.335.304-.614.667-.82 1.07-.168.327-.287.68-.35 1.042-.07.375-.078.762-.03 1.14.047.368.15.73.3 1.066.337.743.917 1.366 1.633 1.754.35.19.73.324 1.123.394.156.028.313.044.47.054.098.004.097.004.194.005z"/></g></svg>